<svg xmlns="http://www.w3.org/2000/svg" xmlns:xlink="http://www.w3.org/1999/xlink" viewBox="0 0 240 240"><defs><style>.cls-1{isolation:isolate;}.cls-2{fill:#31f7ba;}.cls-3{opacity:0.3;}.cls-11,.cls-3,.cls-7,.cls-9{mix-blend-mode:multiply;}.cls-4{fill:url(#radial-gradient);}.cls-5{fill:#86a6ff;}.cls-6,.cls-7{fill:#fbd9af;}.cls-7{opacity:0.35;}.cls-8{fill:#e6ebe8;}.cls-9{fill:#ecf1ee;opacity:0.5;}.cls-10{fill:#f6d6af;opacity:0.32;}.cls-11{fill:#a7d1ff;}.cls-11,.cls-12{opacity:0.7;}.cls-12{fill:#ffbd97;}.cls-13{fill:#fff;opacity:0.85;}</style><radialGradient id="radial-gradient" cx="107.95" cy="108.13" r="68.9" gradientUnits="userSpaceOnUse"><stop offset="0" stop-color="#00a69a"/><stop offset="1" stop-color="#fff" stop-opacity="0"/></radialGradient></defs><g class="cls-1"><g id="Layer_1" data-name="Layer 1"><path class="cls-2" d="M132.1,43.62a68.88,68.88,0,1,0,40.36,88.67A68.88,68.88,0,0,0,132.1,43.62Zm0,73.55A25.79,25.79,0,1,1,117,84,25.79,25.79,0,0,1,132.1,117.17Z"/><g class="cls-3"><path class="cls-4" d="M132.1,43.62a68.88,68.88,0,1,0,40.36,88.67A68.88,68.88,0,0,0,132.1,43.62Zm0,73.55A25.79,25.79,0,1,1,117,84,25.79,25.79,0,0,1,132.1,117.17Z"/></g><path class="cls-5" d="M127.85,98.27s-1-.94-2.61-2.56c-1.49,7.74-4.47,14.44-10.62,19.48s-15.21,7.21-23.57,6.39c1.14,1.85,2.21,3.75,3.23,5.68l20.64,38.29A102.58,102.58,0,0,0,133.4,158a2.35,2.35,0,0,0,1.06-3L127.3,137.6a2,2,0,0,1,2.8-2.33l16.28,11.1a2.26,2.26,0,0,0,3.15-.62,99.25,99.25,0,0,0,10.12-19.46Z"/><path class="cls-6" d="M104.22,62.12,102.47,19.6c.22-3.55-5.72-8-10.82-3.42L65.56,40.88l5.57,5.74c5.47-4.34,14.23-13.74,20-17.69-1.43,6.37-4.82,23-5.64,25.86A34,34,0,0,1,84,59.07a3,3,0,0,1-4.58,1.26l-2.69-2a13.88,13.88,0,0,0-.49-9.13C73.33,42,65.37,38.13,58.43,40.53S48.19,50.72,51.07,57.92c2.74,6.84,10.06,10.68,16.74,9L69,68.45a3,3,0,0,1-1.55,4.76,41.19,41.19,0,0,1-4.23,1c-7.51,1.32-19.45,1.92-27.9.41A.63.63,0,0,1,35,73.48L55,59.66l-4.4-6.22c-7.23,5.07-18.93,11.09-29.22,19.3-3,2.35-2.21,9.11,4.71,11.49,1.92.67,27.55,8.42,34.3,10.65,15.29,5.07,22.48,13.34,30.69,26.7,8.36.82,17.5-1.41,23.57-6.39s9.13-11.74,10.62-19.48C118.67,89.08,104.88,75.46,104.22,62.12Z"/><circle class="cls-7" cx="69.99" cy="61.75" r="26.39"/><circle class="cls-8" cx="64.45" cy="54.6" r="27.99"/><path class="cls-9" d="M73.24,46,90.68,64.62s-3.85,9.86-12.81,14.54L56.79,64.25Z"/><path class="cls-6" d="M145.76,180a6.63,6.63,0,0,0-1.08-2.76,3.71,3.71,0,0,0-2.28-1.49l-1.69.67a1.83,1.83,0,0,1-2.42-1.19l-5.08-17.4a82.58,82.58,0,0,1-18.29,7.7l10.3,19.12a9.89,9.89,0,0,0,13.67,4.12l5.48-3.53a6.62,6.62,0,0,0,1.36-2.44A6.45,6.45,0,0,0,145.76,180Z"/><path class="cls-10" d="M163,191.75l-8.36-17.31a3.53,3.53,0,0,0-4.46-1.75l-7.79,3.08a3.71,3.71,0,0,1,2.28,1.49,6.63,6.63,0,0,1,1.08,2.76,6.45,6.45,0,0,1,0,2.8,6.62,6.62,0,0,1-1.36,2.44l5.63-3.62,4.31,10a5,5,0,0,0,4,2.84l2.58.3A2.13,2.13,0,0,0,163,191.75Z"/><path class="cls-6" d="M178.63,164.09a5.73,5.73,0,0,0,4-2.39l.88-8.67a12.66,12.66,0,0,0-4.38-9.54l-19.52-17.2a77.26,77.26,0,0,1-10,18.88l19.74,10a5.27,5.27,0,0,1,2.71,3.32l1,3.21A6.48,6.48,0,0,0,178.63,164.09Z"/><path class="cls-10" d="M190.53,177,182,169.62l.72-7.92a5.73,5.73,0,0,1-4,2.39,6.48,6.48,0,0,1-5.49-2.4l1.65,6.51a5.15,5.15,0,0,0,1.22,5.5l10.57,10.36a3.25,3.25,0,0,0,5.18-.81A5.26,5.26,0,0,0,190.53,177Z"/><path class="cls-11" d="M218.13,195.33l1.69-2.87a4.11,4.11,0,0,0-2.68.48l0,0a31.3,31.3,0,0,0-3.92-6.18,10,10,0,0,1-2.59-5.83c-.78-3.59,3-3.53,3-3.53a8.06,8.06,0,0,0,.38-4c-2.44,1-3.28,4.33-3.28,4.33-3.4,1.7-3.09,5.53-2.72,7.49a37.45,37.45,0,0,0,2.86,9.26l0,0c-1.56-.14-3.23,1.43-3.23,1.43a21.72,21.72,0,0,0,4.68,1.24h0c3.18,5,6.58,5.67,6.58,5.67a14.12,14.12,0,0,0-.79-7.61A.84.84,0,0,1,218.13,195.33Z"/><path class="cls-12" d="M154.47,215.78a2.31,2.31,0,0,1-1,.74h0a38.28,38.28,0,0,1,6.49,1.24,11.58,11.58,0,0,0,6.62.13c4-1.24,1.42-3.46,1.42-3.46a11.5,11.5,0,0,1,4.58-2.6c0,3-3,4.78-3,4.78-.37,3.35-4,5.19-6,5.57a35.91,35.91,0,0,1-9.67.54h.06a4,4,0,0,1,1,2.11,13.36,13.36,0,0,0-4.09-2.52h0c-6-1.21-7.73-4.36-7.73-4.36a13.93,13.93,0,0,1,6.93-1.54Z"/><circle class="cls-13" cx="64.45" cy="54.6" r="12.32"/></g></g></svg>