<svg xmlns="http://www.w3.org/2000/svg" xmlns:xlink="http://www.w3.org/1999/xlink" viewBox="0 0 240 240"><defs><style>.cls-1{isolation:isolate;}.cls-2{fill:#acdefd;}.cls-3{opacity:0.22;}.cls-10,.cls-11,.cls-13,.cls-3,.cls-6,.cls-9{mix-blend-mode:multiply;}.cls-4{fill:url(#radial-gradient);}.cls-5{fill:#fbe3cb;}.cls-6{fill:#98e674;}.cls-6,.cls-7{opacity:0.7;}.cls-7{fill:#ffb488;}.cls-8{fill:#6669ff;}.cls-9{opacity:0.6;}.cls-10{fill:#d3d3d3;opacity:0.35;}.cls-11{opacity:0.5;fill:url(#linear-gradient);}.cls-12,.cls-13{fill:#ecf1ee;}.cls-13{opacity:0.55;}.cls-14{fill:#fff;opacity:0.85;}</style><radialGradient id="radial-gradient" cx="126.91" cy="111.68" r="69.18" gradientTransform="translate(-6.17 6.67) rotate(-3.05)" gradientUnits="userSpaceOnUse"><stop offset="0" stop-color="#005fde"/><stop offset="1" stop-color="#fff" stop-opacity="0"/></radialGradient><linearGradient id="linear-gradient" x1="91.71" y1="124.58" x2="103.46" y2="146.99" gradientTransform="translate(-6.17 6.67) rotate(-3.05)" gradientUnits="userSpaceOnUse"><stop offset="0" stop-color="#fbe3cb"/><stop offset="1" stop-color="#fff" stop-opacity="0"/></linearGradient></defs><g class="cls-1"><g id="Layer_1" data-name="Layer 1"><path class="cls-2" d="M147.27,45.46a69.17,69.17,0,1,0,45.21,86.74A69.15,69.15,0,0,0,147.27,45.46Zm3.94,73.75a25.89,25.89,0,1,1-16.93-32.47A25.91,25.91,0,0,1,151.21,119.21Z"/><g class="cls-3"><path class="cls-4" d="M147.27,45.46a69.17,69.17,0,1,0,45.21,86.74A69.15,69.15,0,0,0,147.27,45.46Zm3.94,73.75a25.89,25.89,0,1,1-16.93-32.47A25.91,25.91,0,0,1,151.21,119.21Z"/></g><path class="cls-5" d="M110.35,98.49c-13.25,2.93-18.63,11-26.51,22.15-9.29,13.2-32.43,45.27-36.09,47a40.91,40.91,0,0,0-4.45,2.85c-3.44,2.31-2.64,5-2.64,5s-3.41,3.3-5.4,5-2.75,5.05-.78,6.44a.54.54,0,0,0,.48.06l5.64-3.81c-1.19,3.66-2,5.39-1.75,8.78.1,1.26,1.35,3.12,2.59,2.84h0a2.62,2.62,0,0,0,2-1.94c.63-2.54,2.65-8,9.07-15.07,4.63-5.1,43.54-25.36,56.26-29.92,7.79-2.79,23-10.95,28-20.18"/><path class="cls-5" d="M144.05,136.59c-5.26,7.81-11,14.8-19.3,19.18.8.67,3.94-1.12,5.1-1.15-.76,1.87-3.43,4.32-4.19,6.19-.23.59-.65,2,.7,2.38,3.74,1.14,8.63.07,10.84-3.15a51.11,51.11,0,0,0,4.22-8.23c2.81-7.66,7.49-12.15,14.25-20.18s10.94-11.09,17.11-19.58c0,0,2.87-3.82,2.91-3.86,5.49-7.76,5.79-16.84,1.36-24.14l-3.29-5.44L161.3,88.25l1.17,16.5S149.83,128,144.05,136.59Z"/><path class="cls-5" d="M136.11,75.47c-2.37-1.32-8.54,1.09-11.1,2-4.05,1.36-12.21,5.31-19.8,10.18-8.35,5.37-17.64,10.1-19,15-.88,3.18-2.73,6.65-4.68,6.77a24.14,24.14,0,0,0,1.85-5.68c-2.16,2.09-4.93,4-7.63,6.1a1.38,1.38,0,0,1-2.14-.59c-1.71-4.32-.25-7.36,7.38-12.59,14.32-9.8,31.05-23.79,44.85-31.5,6.37-3.55,18.47-5.11,22.53-2.6l6.35,3.42L152,75.74l-12.52,1.07Z"/><path class="cls-6" d="M44.5,143.58l1.6-3.07a4.24,4.24,0,0,0-2.77.64l0,0A32.67,32.67,0,0,0,38.93,135a10.47,10.47,0,0,1-3-5.93c-1-3.7,2.93-3.85,2.93-3.85A8.38,8.38,0,0,0,39,121c-2.48,1.18-3.18,4.69-3.18,4.69-3.43,2-2.9,5.93-2.41,8a39.28,39.28,0,0,0,3.49,9.49l0,0c-1.64-.06-3.28,1.67-3.28,1.67a22.46,22.46,0,0,0,4.94,1h0c3.59,5,7.17,5.54,7.17,5.54a14.76,14.76,0,0,0-1.25-7.89Z"/><path class="cls-7" d="M43.34,204.09a2.31,2.31,0,0,1-1,.83h0a39.63,39.63,0,0,1,6.83.93,12,12,0,0,0,6.91-.24c4.08-1.51,1.28-3.68,1.28-3.68a12.11,12.11,0,0,1,4.63-3c.16,3.08-2.82,5.15-2.82,5.15-.2,3.5-3.89,5.62-6,6.13a37.09,37.09,0,0,1-10,1.1h.06a4.11,4.11,0,0,1,1.14,2.14,14.11,14.11,0,0,0-4.4-2.4h0c-6.34-.92-8.29-4.11-8.29-4.11a14.53,14.53,0,0,1,7.13-2Z"/><path class="cls-8" d="M142.2,72a22.33,22.33,0,0,0-6.09,3.49S131.7,86.69,125.8,92.81c-3.38,3.5-9.28,4.52-15.45,5.68,3.93,6.76,3.75,17.15,1.31,24.59,8-1.86,17.81.76,25.08,4.53,2.74-4.7,5-10.48,8.7-14,3.92-3.78,9.68-7.67,15.05-8.58l2-.24a29.92,29.92,0,0,0,7.3-20l.52-2.91-15.72-13.1A78.15,78.15,0,0,0,142.2,72Z"/><g class="cls-9"><path class="cls-10" d="M155.05,49.67A32.1,32.1,0,0,0,185.3,96.43a32.24,32.24,0,0,0,8.33-1.56c-1-4.48-3.42-11.62-5.68-14.54Z"/></g><path class="cls-11" d="M111.66,123.08l-41.87,32s9.4-3.92,13.92-1.72L130.78,125S120,121,111.66,123.08Z"/><circle class="cls-12" cx="180.12" cy="58.41" r="31.28"/><path class="cls-13" d="M189.78,48.47l19.09,22.29a30.84,30.84,0,0,1-13.65,15.07L170.9,68.77Z"/><circle class="cls-14" cx="180.12" cy="58.41" r="13.87"/></g></g></svg>